<svg xmlns="http://www.w3.org/2000/svg" xmlns:xlink="http://www.w3.org/1999/xlink" height="512px" style="enable-background:new 0 0 512 512;" version="1.1" viewBox="0 0 512 512" width="512px" xml:space="preserve"><g xmlns="http://www.w3.org/2000/svg" id="comp_x5F_230-nike"><g><g id="_x36_3-nike_5_"><g><g><g style="&#10;    transform: translate(20px, -40px);&#10;"><path d="M255.943,236.306l-79.283,20.813c-28.004,6.947-52.498,16.209-76.101,8.1c-32.084-13.89-31.511-50.039-7.591-88.496        c-42.288,35.001-118.39,146.9-15.466,158.203c13.112,1.727,36.454-2.879,61.81-13.578l116.632-48.002l230.055-94.316        l-201.471,49.759L255.943,236.306z"/></g></g></g></g></g>
<g id="形状_1_3_" style="enable-background:new    ;"><g id="形状_1_2_"><g><path d="M180.029,369.941l-15.936,71.474h26.141l15.948-71.474     H180.029z M196.205,364.462c11.872,0,16.466-7.598,16.466-13.305c0-3.847-3.125-10.469-14.847-10.469     c-10.783,0-16.46,7.19-16.46,13.579C181.363,356.535,181.899,364.462,196.205,364.462z M146.843,344.086l-11.132,49.521     l-18.396-49.557H90.681l-21.727,97.365h26.788c3.057-15.589,7.13-32.058,11.118-48.897l18.769,48.897h25.513l21.984-97.329     H146.843z M290.869,369.899h-29.771l-21.503,25.962l11.614-51.775h-26.635l-21.586,97.329h25.95l8.704-37.005l10.953,37.005     h26.57l-11.011-39.057L290.869,369.899z M432.835,368.989c-11.181-3.349-25.041,2.185-31.866,11.66     c0.658-2.938,1.358-6.354,2.166-10.289h-26.525l-15.518,71.055h26.405l8.794-40.301c1.627-7.406,7.592-10.583,12.873-9.207     c2.273,0.616,5.42,2.333,4.373,8.5l-8.955,41.008h26.088l11.952-54.718C445.159,374.643,435.264,369.701,432.835,368.989z      M327.577,366.914c-40.277,0-46.134,31.395-47.267,37.113c-2.962,14.482,0.305,33.284,19.226,38.262     c12.461,3.29,31.987,2.937,44.524-7.328c11.465-9.368,17.143-25.209,16.948-40.11     C360.817,380.518,348.677,366.914,327.577,366.914z M330.736,393.756c-1.37,8.931-4.469,20.285-5.603,23.887l-0.036,0.125     c-1.262,3.967-4.985,6.264-9.37,6.264c-4.431,0-7.095-2.781-6.733-6.353c0.673-5.989,4.444-21.135,5.539-24.139     c1.894-5.204,7.039-6.358,9.371-6.382C329.666,387.122,331.254,390.531,330.736,393.756z" style="fill-rule:evenodd;clip-rule:evenodd;fill:#0D0D0D;"/></g>
</g></g></g><g id="Layer_1"/></svg>